Psych 9 (2010)(DivX)(Nl subs) TBS       
  
 
  


Verenigde Staten / Verenigd Koninkrijk / Tsjechië
Horror / Thriller
98 minuten

geregisseerd door Andrew Shortell
met Sara Foster, Cary Elwes en Michael Biehn

Roslyn is een jonge, onstabiele vrouw en ze werkt alleen in een groot, net gesloten ziekenhuis. Op een gegeven moment wordt ze getuige van bizarre gebeurtenissen, die ze in de eerste plaats niet kan plaatsen. Maar dan begint ze langzamerhand te geloven dat deze gebeurtenissen een link hebben met een reeks
mysterieuze moorden

Storyline

A young woman (Sara Foster) with a troubled past takes a job at recently closed down hospital. Working the night shift alone she begins to experience a series of unsettling events that lead her to believe that the hospital may be connected to a number of recent murders in the area. To uncover the truth she will have to revisit the past behind the walls of Psych:9


info 

Categorie : Beeld 
Formaat : DivX 
Bron : Retail
Cover : Yes
Ondertitels : Nederlands (ingebakken)
Thanks: vrijemp3  
 
General
Complete name                    : Psych.9.AVI
Format                           : AVI
Format/Info                      : Audio Video Interleave
Format profile                   : OpenDML
File size                        : 1.81 GiB
Duration                         : 1h 38mn
Overall bit rate                 : 2 650 Kbps

Video
ID                               : 0
Format                           : MPEG-4 Visual
Format profile                   : Simple@L3
Format settings, BVOP            : No
Format settings, QPel            : No
Format settings, GMC             : No warppoints
Format settings, Matrix          : Default (H.263)
Codec ID                         : XVID
Codec ID/Hint                    : XviD
Duration                         : 1h 38mn
Bit rate                         : 2 197 Kbps
Width                            : 1 280 pixels
Height                           : 544 pixels
Display aspect ratio             : 2.35:1
Frame rate                       : 23.976 fps
Color space                      : YUV
Chroma subsampling               : 4:2:0
Bit depth                        : 8 bits
Scan type                        : Progressive
Bits/(Pixel*Frame)               : 0.132
Stream size                      : 1.50 GiB (83%)
Writing library                  : ZJMedia MPEG Encoder

Audio
ID                               : 1
Format                           : AC-3
Format/Info                      : Audio Coding 3
Mode extension                   : CM (complete main)
Codec ID                         : 2000
Duration                         : 1h 38mn
Bit rate mode                    : Constant
Bit rate                         : 448 Kbps
Channel(s)                       : 6 channels
Channel positions                : Front: L C R, Side: L R, LFE
Sampling rate                    : 48.0 KHz
Bit depth                        : 16 bits
Stream size                      : 314 MiB (17%)
Alignment                        : Split accross interleaves
Interleave, duration             : 959 ms (23.00 video frames)      

 
  
http://www.imdb.com/title/tt0901504  
http://www.moviemeter.nl/film/43603
 


Black-Sam